HIERARCHY
ROOT Pelvis
{
	OFFSET 0.000000 0.000000 0.000000
	CHANNELS 6 Xposition Yposition Zposition Zrotation Yrotation Xrotation 
	JOINT Left_hip
	{
		OFFSET 0.069463 -0.088608 -0.009542
		CHANNELS 3 Zrotation Yrotation Xrotation
		JOINT Left_knee
		{
			OFFSET 0.030639 -0.359740 -0.005288
			CHANNELS 3 Zrotation Yrotation Xrotation
			JOINT Left_ankle
			{
				OFFSET -0.011068 -0.376034 -0.042462
				CHANNELS 3 Zrotation Yrotation Xrotation
				JOINT Left_foot
				{
					OFFSET 0.023192 -0.053321 0.111332
					CHANNELS 3 Zrotation Yrotation Xrotation
					End Site
					{
						OFFSET 0.000000 0.000000 0.000000
					}
				}
			}
		}
	}
	JOINT Right_hip
	{
		OFFSET -0.067438 -0.088025 -0.006263
		CHANNELS 3 Zrotation Yrotation Xrotation
		JOINT Right_knee
		{
			OFFSET -0.035962 -0.366229 -0.008063
			CHANNELS 3 Zrotation Yrotation Xrotation
			JOINT Right_ankle
			{
				OFFSET 0.013608 -0.375719 -0.040481
				CHANNELS 3 Zrotation Yrotation Xrotation
				JOINT Right_foot
				{
					OFFSET -0.021034 -0.045527 0.114617
					CHANNELS 3 Zrotation Yrotation Xrotation
					End Site
					{
						OFFSET 0.000000 0.000000 0.000000
					}
				}
			}
		}
	}
	JOINT Spine1
	{
		OFFSET -0.002610 0.101823 -0.019986
		CHANNELS 3 Zrotation Yrotation Xrotation
		JOINT Spine2
		{
			OFFSET 0.004114 0.128714 -0.000938
			CHANNELS 3 Zrotation Yrotation Xrotation
			JOINT Spine3
			{
				OFFSET 0.002191 0.048470 0.027684
				CHANNELS 3 Zrotation Yrotation Xrotation
				JOINT Neck
				{
					OFFSET -0.002856 0.198873 -0.044022
					CHANNELS 3 Zrotation Yrotation Xrotation
					JOINT Head
					{
						OFFSET 0.002981 0.062960 0.049860
						CHANNELS 3 Zrotation Yrotation Xrotation
						End Site
						{
							OFFSET 0.000000 0.000000 0.000000
						}
					}
				}
				JOINT Left_collar
				{
					OFFSET 0.073708 0.112550 -0.033440
					CHANNELS 3 Zrotation Yrotation Xrotation
					JOINT Left_shoulder
					{
						OFFSET 0.083291 0.030786 -0.008013
						CHANNELS 3 Zrotation Yrotation Xrotation
						JOINT Left_elbow
						{
							OFFSET 0.245601 -0.011792 -0.027873
							CHANNELS 3 Zrotation Yrotation Xrotation
							JOINT Left_wrist
							{
								OFFSET 0.232258 0.008622 -0.000487
								CHANNELS 3 Zrotation Yrotation Xrotation
								JOINT Left_palm
								{
									OFFSET 0.077300 -0.009457 -0.012851
									CHANNELS 3 Zrotation Yrotation Xrotation
									End Site
									{
										OFFSET 0.000000 0.000000 0.000000
									}
								}
							}
						}
					}
				}
				JOINT Right_collar
				{
					OFFSET -0.075339 0.110574 -0.037874
					CHANNELS 3 Zrotation Yrotation Xrotation
					JOINT Right_shoulder
					{
						OFFSET -0.086522 0.031207 -0.009986
						CHANNELS 3 Zrotation Yrotation Xrotation
						JOINT Right_elbow
						{
							OFFSET -0.237313 -0.011478 -0.019859
							CHANNELS 3 Zrotation Yrotation Xrotation
							JOINT Right_wrist
							{
								OFFSET -0.237599 0.007976 -0.003742
								CHANNELS 3 Zrotation Yrotation Xrotation
								JOINT Right_palm
								{
									OFFSET -0.076920 -0.006943 -0.009920
									CHANNELS 3 Zrotation Yrotation Xrotation
									End Site
									{
										OFFSET 0.000000 0.000000 0.000000
									}
								}
							}
						}
					}
				}
			}
		}
	}
}
MOTION
Frames: 12
Frame Time: 0.100000
0.000000 0.000000 0.000000 176.585748 27.504113 -25.610003 1.275062 4.800299 17.539226 0.725951 -12.382880 -2.236644 4.250327 4.492155 -1.977745 -9.216720 8.872572 -3.285900 -1.828067 -5.338668 19.917329 -1.238681 1.714378 -3.210481 -6.256776 -6.470796 -6.733236 12.548598 -3.541872 9.378593 0.874732 0.640924 6.404351 0.184105 -3.856856 7.211821 -0.363215 -2.710056 -0.623439 -0.954801 -9.413977 10.911138 -2.881798 -10.334946 2.358043 -31.460824 1.553940 6.287142 -50.744888 -5.848489 7.811365 1.919834 -16.180295 16.160046 -12.979182 3.632762 -0.359761 -8.763172 -3.534166 -9.819378 32.438942 3.734151 4.665304 52.574737 2.781412 10.619177 -7.135434 11.786512 -2.146548 8.264425 -3.919547 -1.053290 11.801744 8.557724 -3.983589 
0.001163 -0.000059 0.000822 176.613069 27.269549 -25.586124 1.397001 4.903331 17.555734 0.763589 -12.259388 -2.177906 4.178370 4.560106 -1.987620 -9.175253 8.787848 -3.282766 -1.760108 -5.354850 19.901666 -1.201275 1.820229 -3.201120 -6.202292 -6.280614 -6.759211 12.511704 -3.650907 9.339068 0.867747 0.592635 6.453718 0.212173 -3.927137 7.128444 -0.308343 -2.753887 -0.652720 -0.889473 -9.516804 10.600895 -2.707700 -10.409647 2.082193 -31.364109 1.479248 6.286133 -50.857190 -5.764681 7.882963 1.811220 -16.157371 16.390923 -12.925202 3.563175 -0.250930 -8.790797 -3.518576 -9.880113 32.300612 3.737410 4.611264 52.618759 2.685775 10.567223 -7.047137 11.770903 -2.013845 8.274023 -3.879094 -1.108633 11.805500 8.545725 -4.026642 
0.002488 -0.000311 0.002026 176.649486 26.934477 -25.472176 1.488037 4.874894 17.405032 0.747557 -12.056347 -1.972934 4.117852 4.722212 -2.010904 -9.025317 8.607245 -3.342575 -1.644182 -5.292646 19.746003 -1.157956 1.906385 -3.128840 -6.160816 -6.103671 -6.764110 12.397174 -3.834812 9.247094 0.848949 0.560772 6.390438 0.249831 -3.947206 6.994637 -0.248996 -2.754726 -0.630897 -0.963916 -9.611579 10.468464 -2.558480 -10.411052 1.812773 -30.977066 1.585146 6.413402 -51.183673 -5.472365 8.068560 1.710328 -16.925281 16.903519 -12.835149 3.319408 -0.552507 -8.757201 -3.437136 -9.850037 31.941661 3.727760 4.654915 52.820142 2.586434 10.626364 -6.978257 12.112711 -1.525107 8.258697 -3.790623 -1.277922 11.727297 8.482972 -4.055863 
0.003414 -0.000637 0.003944 176.676422 26.618041 -25.450218 1.602152 4.897057 17.491678 0.771358 -11.940179 -1.895877 3.829141 4.990877 -2.091149 -8.521199 8.252107 -3.520519 -1.531729 -5.262107 19.734896 -1.160102 2.107667 -3.009222 -5.953704 -6.090709 -6.843602 12.103526 -3.890785 9.012179 0.754019 0.504647 6.144958 0.364530 -3.866655 6.840473 -0.171538 -2.751718 -0.436674 -1.096173 -9.628201 10.453409 -2.689111 -10.376445 1.876723 -30.389611 2.498505 6.663074 -51.524918 -4.544742 8.474859 1.338993 -19.461043 18.131096 -12.350745 2.701329 -1.390240 -8.726463 -3.322109 -9.704124 31.616889 3.234376 4.566472 52.764130 2.251108 10.796563 -6.838619 13.193814 -0.851745 7.941452 -3.574346 -1.502643 11.656273 8.373914 -4.077890 
0.003054 -0.001009 0.008174 176.687097 26.454058 -26.199926 1.828493 5.046753 18.575302 0.802693 -12.171494 -1.836099 4.024561 5.145411 -2.388203 -8.767267 8.327880 -3.467227 -1.671523 -5.446908 20.932796 -1.059596 2.428125 -3.258735 -6.219537 -6.123307 -6.954339 12.526777 -3.763159 9.181189 0.690966 0.645946 5.541816 0.393866 -3.771884 7.378663 -0.240249 -2.691362 -0.267377 -1.228737 -9.747376 12.156318 -3.072674 -10.301418 2.784277 -30.593598 2.868170 6.841986 -51.328340 -4.427792 8.037869 1.286896 -18.537085 17.188826 -12.823668 2.902265 -2.487892 -8.621977 -3.319311 -9.457827 31.899810 3.079235 4.776488 52.246703 2.442968 10.625465 -6.386770 12.432278 -1.207391 8.221485 -3.886423 -1.805208 11.748565 8.408177 -3.952311 
0.003965 -0.001074 0.010480 176.715617 26.801390 -26.504410 2.280841 5.423731 19.522312 0.681208 -12.765615 -2.751204 4.300499 4.449677 -2.326904 -9.884187 8.704149 -3.041845 -1.983283 -5.711722 21.704770 -0.801487 2.375392 -3.697745 -7.105188 -6.192627 -7.106022 14.243620 -3.587284 10.276352 0.569332 0.623599 5.005971 0.409288 -3.741567 7.105896 -0.468351 -2.769981 -0.726769 -1.166830 -9.097833 15.565440 -4.583340 -10.031051 6.025526 -31.780300 2.656886 6.562714 -49.570370 -5.497193 7.341601 1.246991 -14.762553 15.635849 -13.915363 3.682253 -1.635068 -8.553874 -3.482111 -9.506075 33.373482 3.331206 4.553259 49.982450 4.261936 10.055129 -5.837074 8.423604 -2.958751 8.437593 -4.587297 -0.870521 11.976429 8.552452 -3.637458 
0.014474 0.001232 -0.002901 176.359481 29.201524 -24.839427 1.867873 4.078374 14.411697 -0.185676 -12.821111 0.144303 4.646924 3.146640 -2.509408 -10.455922 9.684728 -2.514269 -1.222113 -5.599466 17.596401 -0.825600 0.474085 -1.519941 -7.840472 -7.069840 -7.676078 14.672331 -3.743574 10.731390 0.136813 0.764679 8.481653 0.229116 -4.126423 6.688043 -0.136067 -2.725181 -1.702916 -0.996174 -9.119579 12.091258 -2.893141 -10.787589 3.104688 -30.393104 -1.972690 6.876936 -46.654217 -7.892340 8.217429 1.362365 -25.003669 16.563590 -10.758347 3.000182 -0.978240 -8.594568 -3.413463 -8.975467 31.981707 7.520786 4.907012 49.965897 6.077342 11.264076 -7.168760 19.348874 -0.905734 7.044271 -3.226925 -0.805267 11.506926 8.753116 -3.419361 
0.033354 0.006803 -0.028990 175.478716 32.785801 -20.300973 0.702118 -0.309612 1.044107 -1.255402 -11.167776 9.451750 3.416842 2.501045 -3.220106 -7.477230 10.598256 -4.407202 0.093583 -4.796816 8.263456 -0.707642 -3.716197 2.003555 -6.076812 -7.724334 -8.312323 10.670977 -3.978268 10.029815 0.543529 0.890473 14.211664 0.253692 -4.266899 3.184931 0.780001 -2.461941 -2.437394 -2.263572 -8.829518 6.812815 -0.882960 -10.840818 0.107676 -25.514772 -5.235933 5.406016 -46.981352 -11.124003 10.198300 5.475449 -53.515357 14.921414 -3.662862 -0.639247 -5.280693 -8.237282 -2.751449 -6.041983 25.989127 10.636047 3.112385 52.183876 8.148190 14.334402 -14.597574 49.817418 -1.107508 2.811296 1.158348 -4.494522 9.966166 8.521190 -2.161498 
0.048336 0.015143 -0.050237 173.129746 38.995529 -27.180409 0.281419 -0.170493 -0.518403 -0.642737 -7.707711 18.966288 -0.678831 1.663815 -3.933077 -4.480911 15.236583 -7.488420 -0.271599 -7.249850 16.434289 -0.619727 -8.669070 -3.015258 -4.004603 -5.709044 -3.641004 13.132735 -8.831061 3.572136 2.863480 2.169583 24.001370 0.013075 -5.262748 7.040414 2.058906 -1.706038 -1.640866 -3.778088 -11.246873 4.276587 1.214976 -11.965449 -6.833519 -21.206007 -11.821834 3.964422 -50.039360 -17.549195 11.565261 54.398354 -78.395152 -25.902204 4.476746 -10.246020 -9.809439 -3.008241 -0.562651 0.035089 17.692246 16.979417 -0.044671 55.225319 10.604405 16.024602 -91.742510 72.814087 -69.670418 -10.238993 6.970419 -9.672016 8.104548 8.309647 0.078606 
0.050468 0.015045 -0.059628 171.316181 46.174124 -26.365879 0.704115 1.832283 -7.508111 0.923685 5.111555 20.587930 0.701365 2.847482 -2.105982 -4.053461 17.850963 -8.329434 -1.056610 -8.621651 14.553856 -0.688549 -13.761251 -2.905282 -5.324813 -4.816453 -3.048985 14.484354 -11.415392 2.373296 3.355113 2.545854 25.488640 -0.297705 -5.343234 6.471974 2.165908 -1.430487 -1.779461 -3.845767 -13.118359 5.596232 1.340542 -11.806536 -5.463079 -17.958111 -13.126009 2.970108 -56.012144 -21.270842 13.517237 150.080517 -72.434144 -116.570356 6.605284 -10.997927 -16.691648 -2.271201 -0.129179 3.064604 11.789505 19.020524 -2.782910 58.860268 18.229447 17.674047 -146.793412 58.913647 -117.940716 -13.130919 8.624177 -10.519138 7.363551 8.466241 1.112245 
0.034595 0.013478 -0.059441 168.832219 53.004717 -27.998827 0.883415 4.341709 -7.936309 0.477376 12.082206 14.452091 0.496230 2.799729 -0.388613 -2.807211 19.919596 -8.370159 -2.655963 -10.527293 15.514193 -0.711732 -17.867731 -2.080888 -5.995962 -5.308366 -3.463870 15.534597 -11.642653 1.689118 3.709157 2.471988 25.492651 -1.088151 -5.230477 7.531364 1.928643 -1.153028 -1.390063 -4.083142 -13.040825 9.026332 0.036749 -11.021644 -2.097800 -14.919346 -14.551238 2.001319 -59.549930 -24.373470 14.728677 164.961168 -59.287556 -128.017389 10.103554 -10.260199 -20.826602 -0.908406 0.322246 4.948023 6.842678 21.747936 -5.142776 61.396835 25.833014 18.949567 -156.348596 49.153781 -124.572704 -16.232225 9.043608 -9.336442 6.217665 8.221062 1.824563 
-0.000398 0.016516 -0.056963 162.813321 60.328243 -33.448452 -0.039664 7.671679 -5.956848 1.210612 20.619183 9.773425 2.431681 6.158486 -0.816470 -2.975315 21.004649 -7.928648 -4.026334 -12.361072 17.891779 -1.309849 -21.775444 0.726157 -6.548002 -6.926219 -4.775208 16.677611 -11.449414 0.756216 4.323132 2.262920 25.140888 -1.009288 -5.085316 7.422327 2.090332 -0.987782 -0.979382 -4.672602 -13.031494 11.747786 -1.433765 -10.081292 1.178869 -13.113757 -14.967542 1.266036 -61.822478 -26.816489 14.955610 169.613564 -53.482971 -130.297148 12.499458 -9.374481 -20.360426 0.280455 0.535437 5.704953 5.049313 22.037069 -5.839568 62.774609 27.890728 19.442708 -158.522090 46.416859 -125.803398 -18.160540 9.012410 -7.837134 5.144764 7.954343 1.804778 
